<?xml version="1.0" encoding="UTF-8"?>
<svg width="700pt" height="700pt" version="1.1" viewBox="0 0 700 700" xmlns="http://www.w3.org/2000/svg" xmlns:xlink="http://www.w3.org/1999/xlink">
 <defs>
  <symbol id="x" overflow="visible">
   <path d="m10.5-3.1562c1.0508 0 1.8516-0.37891 2.4062-1.1406 0.55078-0.76953 0.82812-1.8828 0.82812-3.3438 0-1.457-0.27734-2.5664-0.82812-3.3281-0.55469-0.76953-1.3555-1.1562-2.4062-1.1562-1.0547 0-1.8594 0.38672-2.4219 1.1562-0.55469 0.77344-0.82812 1.8828-0.82812 3.3281 0 1.4492 0.27344 2.5586 0.82812 3.3281 0.5625 0.77344 1.3672 1.1562 2.4219 1.1562zm-3.25-9.9219c0.67578-0.88281 1.4219-1.5391 2.2344-1.9688 0.82031-0.42578 1.7656-0.64062 2.8281-0.64062 1.8945 0 3.4453 0.75 4.6562 2.25 1.207 1.5 1.8125 3.4336 1.8125 5.7969 0 2.3555-0.60547 4.2812-1.8125 5.7812-1.2109 1.5-2.7617 2.25-4.6562 2.25-1.0625 0-2.0078-0.21094-2.8281-0.625-0.8125-0.42578-1.5586-1.0859-2.2344-1.9844v2.2188h-4.8906v-21.281h4.8906z"/>
  </symbol>
  <symbol id="q" overflow="visible">
   <path d="m0.34375-15.312h4.8906l4.125 10.391 3.5-10.391h4.8906l-6.4375 16.766c-0.64844 1.6953-1.4023 2.8828-2.2656 3.5625-0.86719 0.6875-2 1.0312-3.4062 1.0312h-2.8438v-3.2188h1.5312c0.83203 0 1.4375-0.13672 1.8125-0.40625 0.38281-0.26172 0.67969-0.73047 0.89062-1.4062l0.14062-0.42188z"/>
  </symbol>
  <symbol id="k" overflow="visible">
   <path d="m2.5781-20.406h14.203v3.9688h-8.9531v3.7969h8.4219v3.9844h-8.4219v8.6562h-5.25z"/>
  </symbol>
  <symbol id="d" overflow="visible">
   <path d="m13.734-11.141c-0.4375-0.19531-0.87109-0.34375-1.2969-0.4375-0.41797-0.10156-0.83984-0.15625-1.2656-0.15625-1.2617 0-2.2305 0.40625-2.9062 1.2188-0.67969 0.80469-1.0156 1.9531-1.0156 3.4531v7.0625h-4.8906v-15.312h4.8906v2.5156c0.625-1 1.3438-1.7266 2.1562-2.1875 0.82031-0.46875 1.8008-0.70312 2.9375-0.70312 0.16406 0 0.34375 0.011719 0.53125 0.03125 0.19531 0.011719 0.47656 0.039062 0.84375 0.078125z"/>
  </symbol>
  <symbol id="c" overflow="visible">
   <path d="m9.2188-6.8906c-1.0234 0-1.793 0.17188-2.3125 0.51562-0.51172 0.34375-0.76562 0.85547-0.76562 1.5312 0 0.625 0.20703 1.1172 0.625 1.4688 0.41406 0.34375 0.98828 0.51562 1.7188 0.51562 0.92578 0 1.7031-0.32812 2.3281-0.98438 0.63281-0.66406 0.95312-1.4922 0.95312-2.4844v-0.5625zm7.4688-1.8438v8.7344h-4.9219v-2.2656c-0.65625 0.92969-1.3984 1.6055-2.2188 2.0312-0.82422 0.41406-1.8242 0.625-3 0.625-1.5859 0-2.8711-0.45703-3.8594-1.375-0.99219-0.92578-1.4844-2.1289-1.4844-3.6094 0-1.7891 0.61328-3.1016 1.8438-3.9375 1.2383-0.84375 3.1797-1.2656 5.8281-1.2656h2.8906v-0.39062c0-0.76953-0.30859-1.332-0.92188-1.6875-0.61719-0.36328-1.5703-0.54688-2.8594-0.54688-1.0547 0-2.0312 0.10547-2.9375 0.3125-0.89844 0.21094-1.7305 0.52344-2.5 0.9375v-3.7344c1.0391-0.25 2.0859-0.44141 3.1406-0.57812 1.0625-0.13281 2.125-0.20312 3.1875-0.20312 2.7578 0 4.75 0.54688 5.9688 1.6406 1.2266 1.0859 1.8438 2.8555 1.8438 5.3125z"/>
  </symbol>
  <symbol id="b" overflow="visible">
   <path d="m17.75-9.3281v9.3281h-4.9219v-7.1406c0-1.3203-0.03125-2.2344-0.09375-2.7344s-0.16797-0.86719-0.3125-1.1094c-0.1875-0.3125-0.44922-0.55469-0.78125-0.73438-0.32422-0.17578-0.69531-0.26562-1.1094-0.26562-1.0234 0-1.8242 0.39844-2.4062 1.1875-0.58594 0.78125-0.875 1.8711-0.875 3.2656v7.5312h-4.8906v-15.312h4.8906v2.2344c0.73828-0.88281 1.5195-1.5391 2.3438-1.9688 0.83203-0.42578 1.75-0.64062 2.75-0.64062 1.7695 0 3.1133 0.54688 4.0312 1.6406 0.91406 1.0859 1.375 2.6562 1.375 4.7188z"/>
  </symbol>
  <symbol id="g" overflow="visible">
   <path d="m14.719-14.828v3.9844c-0.65625-0.45703-1.3242-0.79688-2-1.0156-0.66797-0.21875-1.3594-0.32812-2.0781-0.32812-1.3672 0-2.4336 0.40234-3.2031 1.2031-0.76172 0.79297-1.1406 1.9062-1.1406 3.3438 0 1.4297 0.37891 2.543 1.1406 3.3438 0.76953 0.79297 1.8359 1.1875 3.2031 1.1875 0.75781 0 1.4844-0.10938 2.1719-0.32812 0.6875-0.22656 1.3203-0.56641 1.9062-1.0156v4c-0.76172 0.28125-1.5391 0.48828-2.3281 0.625-0.78125 0.14453-1.5742 0.21875-2.375 0.21875-2.7617 0-4.9219-0.70703-6.4844-2.125-1.5547-1.4141-2.3281-3.3828-2.3281-5.9062 0-2.5312 0.77344-4.5039 2.3281-5.9219 1.5625-1.4141 3.7227-2.125 6.4844-2.125 0.80078 0 1.5938 0.074219 2.375 0.21875 0.78125 0.13672 1.5547 0.35156 2.3281 0.64062z"/>
  </symbol>
  <symbol id="f" overflow="visible">
   <path d="m2.3594-15.312h4.8906v15.312h-4.8906zm0-5.9688h4.8906v4h-4.8906z"/>
  </symbol>
  <symbol id="j" overflow="visible">
   <path d="m14.312-14.828v3.7188c-1.043-0.4375-2.0547-0.76562-3.0312-0.98438-0.98047-0.21875-1.9023-0.32812-2.7656-0.32812-0.92969 0-1.6211 0.11719-2.0781 0.34375-0.44922 0.23047-0.67188 0.58984-0.67188 1.0781 0 0.38672 0.17188 0.68359 0.51562 0.89062 0.34375 0.21094 0.95703 0.36719 1.8438 0.46875l0.85938 0.125c2.5078 0.32422 4.1953 0.85156 5.0625 1.5781 0.86328 0.73047 1.2969 1.8711 1.2969 3.4219 0 1.6367-0.60547 2.8672-1.8125 3.6875-1.1992 0.8125-2.9922 1.2188-5.375 1.2188-1.0234 0-2.0742-0.078125-3.1562-0.23438-1.0742-0.15625-2.1797-0.39453-3.3125-0.71875v-3.7188c0.96875 0.48047 1.9609 0.83984 2.9844 1.0781 1.0312 0.23047 2.0781 0.34375 3.1406 0.34375 0.95703 0 1.6758-0.12891 2.1562-0.39062 0.47656-0.26953 0.71875-0.66406 0.71875-1.1875 0-0.4375-0.16797-0.75781-0.5-0.96875-0.33594-0.21875-0.99609-0.38281-1.9844-0.5l-0.85938-0.10938c-2.1797-0.26953-3.7031-0.77344-4.5781-1.5156-0.875-0.73828-1.3125-1.8594-1.3125-3.3594 0-1.625 0.55078-2.8281 1.6562-3.6094 1.1133-0.78906 2.8203-1.1875 5.125-1.1875 0.89453 0 1.8359 0.074219 2.8281 0.21875 1 0.13672 2.082 0.35156 3.25 0.64062z"/>
  </symbol>
  <symbol id="a" overflow="visible">
   <path d="m9.6406-12.188c-1.0859 0-1.9141 0.39062-2.4844 1.1719-0.57422 0.78125-0.85938 1.9062-0.85938 3.375s0.28516 2.5938 0.85938 3.375c0.57031 0.77344 1.3984 1.1562 2.4844 1.1562 1.0625 0 1.875-0.38281 2.4375-1.1562 0.57031-0.78125 0.85938-1.9062 0.85938-3.375s-0.28906-2.5938-0.85938-3.375c-0.5625-0.78125-1.375-1.1719-2.4375-1.1719zm0-3.5c2.6328 0 4.6914 0.71484 6.1719 2.1406 1.4766 1.418 2.2188 3.3867 2.2188 5.9062 0 2.5117-0.74219 4.4805-2.2188 5.9062-1.4805 1.418-3.5391 2.125-6.1719 2.125-2.6484 0-4.7148-0.70703-6.2031-2.125-1.4922-1.4258-2.2344-3.3945-2.2344-5.9062 0-2.5195 0.74219-4.4883 2.2344-5.9062 1.4883-1.4258 3.5547-2.1406 6.2031-2.1406z"/>
  </symbol>
  <symbol id="w" overflow="visible">
   <path d="m2.5781-20.406h5.25v18.422c0 2.5391-0.69531 4.4414-2.0781 5.7031-1.375 1.2578-3.4609 1.8906-6.25 1.8906h-1.0781v-3.9844h0.82812c1.0938 0 1.9219-0.30859 2.4844-0.92188 0.5625-0.60547 0.84375-1.5 0.84375-2.6875z"/>
  </symbol>
  <symbol id="v" overflow="visible">
   <path d="m0.42188-15.312h4.8906l3.8281 10.578 3.7969-10.578h4.9062l-6.0312 15.312h-5.375z"/>
  </symbol>
  <symbol id="e" overflow="visible">
   <path d="m17.641-7.7031v1.4062h-11.453c0.125 1.1484 0.53906 2.0078 1.25 2.5781 0.70703 0.57422 1.7031 0.85938 2.9844 0.85938 1.0312 0 2.082-0.14844 3.1562-0.45312 1.082-0.3125 2.1914-0.77344 3.3281-1.3906v3.7656c-1.1562 0.4375-2.3125 0.76562-3.4688 0.98438-1.1562 0.22656-2.3125 0.34375-3.4688 0.34375-2.7734 0-4.9297-0.70312-6.4688-2.1094-1.5312-1.4062-2.2969-3.3789-2.2969-5.9219 0-2.5 0.75391-4.4609 2.2656-5.8906 1.5078-1.4375 3.582-2.1562 6.2188-2.1562 2.4062 0 4.332 0.73047 5.7812 2.1875 1.4453 1.4492 2.1719 3.3828 2.1719 5.7969zm-5.0312-1.625c0-0.92578-0.27344-1.6719-0.8125-2.2344-0.54297-0.57031-1.25-0.85938-2.125-0.85938-0.94922 0-1.7188 0.26562-2.3125 0.79688s-0.96484 1.2969-1.1094 2.2969z"/>
  </symbol>
  <symbol id="u" overflow="visible">
   <path d="m7.8281-16.438v12.453h1.8906c2.1562 0 3.8008-0.53125 4.9375-1.5938 1.1328-1.0625 1.7031-2.6133 1.7031-4.6562 0-2.0195-0.57031-3.5547-1.7031-4.6094-1.125-1.0625-2.7734-1.5938-4.9375-1.5938zm-5.25-3.9688h5.5469c3.0938 0 5.3984 0.21875 6.9219 0.65625 1.5195 0.4375 2.8203 1.1875 3.9062 2.25 0.95703 0.91797 1.6641 1.9805 2.125 3.1875 0.46875 1.1992 0.70312 2.5586 0.70312 4.0781 0 1.543-0.23438 2.918-0.70312 4.125-0.46094 1.2109-1.168 2.2773-2.125 3.2031-1.0938 1.0547-2.4062 1.8047-3.9375 2.25-1.5312 0.4375-3.8281 0.65625-6.8906 0.65625h-5.5469z"/>
  </symbol>
  <symbol id="t" overflow="visible">
   <path d="m1.5938-15.312h13.359v3.4219l-8.0625 8.3906h8.0625v3.5h-13.688v-3.4219l8.0625-8.3906h-7.7344z"/>
  </symbol>
  <symbol id="s" overflow="visible">
   <path d="m2.5781-20.406h6.6875l4.6562 10.922 4.6719-10.922h6.6875v20.406h-4.9844v-14.938l-4.7031 11.016h-3.3281l-4.7031-11.016v14.938h-4.9844z"/>
  </symbol>
  <symbol id="h" overflow="visible">
   <path d="m7.7031-19.656v4.3438h5.0469v3.5h-5.0469v6.5c0 0.71094 0.14062 1.1875 0.42188 1.4375s0.83594 0.375 1.6719 0.375h2.5156v3.5h-4.1875c-1.9375 0-3.3125-0.39844-4.125-1.2031-0.80469-0.8125-1.2031-2.1797-1.2031-4.1094v-6.5h-2.4219v-3.5h2.4219v-4.3438z"/>
  </symbol>
  <symbol id="i" overflow="visible">
   <path d="m2.3594-15.312h4.8906v15.031c0 2.0508-0.49609 3.6172-1.4844 4.7031-0.98047 1.082-2.4062 1.625-4.2812 1.625h-2.4219v-3.2188h0.85938c0.92578 0 1.5625-0.21094 1.9062-0.625 0.35156-0.41797 0.53125-1.2461 0.53125-2.4844zm0-5.9688h4.8906v4h-4.8906z"/>
  </symbol>
  <symbol id="r" overflow="visible">
   <path d="m12.422-21.281v3.2188h-2.7031c-0.6875 0-1.1719 0.125-1.4531 0.375-0.27344 0.25-0.40625 0.6875-0.40625 1.3125v1.0625h4.1875v3.5h-4.1875v11.812h-4.8906v-11.812h-2.4375v-3.5h2.4375v-1.0625c0-1.6641 0.46094-2.8984 1.3906-3.7031 0.92578-0.80078 2.3672-1.2031 4.3281-1.2031z"/>
  </symbol>
  <symbol id="p" overflow="visible">
   <path d="m16.547-12.766c0.61328-0.94531 1.3477-1.6719 2.2031-2.1719 0.85156-0.5 1.7891-0.75 2.8125-0.75 1.7578 0 3.0977 0.54688 4.0156 1.6406 0.92578 1.0859 1.3906 2.6562 1.3906 4.7188v9.3281h-4.9219v-7.9844-0.35938c0.007813-0.13281 0.015625-0.32031 0.015625-0.5625 0-1.082-0.16406-1.8633-0.48438-2.3438-0.3125-0.48828-0.82422-0.73438-1.5312-0.73438-0.92969 0-1.6484 0.38672-2.1562 1.1562-0.51172 0.76172-0.77344 1.8672-0.78125 3.3125v7.5156h-4.9219v-7.9844c0-1.6953-0.14844-2.7852-0.4375-3.2656-0.29297-0.48828-0.8125-0.73438-1.5625-0.73438-0.9375 0-1.6641 0.38672-2.1719 1.1562-0.51172 0.76172-0.76562 1.8594-0.76562 3.2969v7.5312h-4.9219v-15.312h4.9219v2.2344c0.60156-0.86328 1.2891-1.5156 2.0625-1.9531 0.78125-0.4375 1.6406-0.65625 2.5781-0.65625 1.0625 0 2 0.25781 2.8125 0.76562 0.8125 0.51172 1.4258 1.2305 1.8438 2.1562z"/>
  </symbol>
  <symbol id="o" overflow="visible">
   <path d="m17.75-9.3281v9.3281h-4.9219v-7.1094c0-1.3438-0.03125-2.2656-0.09375-2.7656s-0.16797-0.86719-0.3125-1.1094c-0.1875-0.3125-0.44922-0.55469-0.78125-0.73438-0.32422-0.17578-0.69531-0.26562-1.1094-0.26562-1.0234 0-1.8242 0.39844-2.4062 1.1875-0.58594 0.78125-0.875 1.8711-0.875 3.2656v7.5312h-4.8906v-21.281h4.8906v8.2031c0.73828-0.88281 1.5195-1.5391 2.3438-1.9688 0.83203-0.42578 1.75-0.64062 2.75-0.64062 1.7695 0 3.1133 0.54688 4.0312 1.6406 0.91406 1.0859 1.375 2.6562 1.375 4.7188z"/>
  </symbol>
  <symbol id="n" overflow="visible">
   <path d="m2.5781-20.406h5.875l7.4219 14v-14h4.9844v20.406h-5.875l-7.4219-14v14h-4.9844z"/>
  </symbol>
  <symbol id="m" overflow="visible">
   <path d="m2.1875-5.9688v-9.3438h4.9219v1.5312c0 0.83594-0.007813 1.875-0.015625 3.125-0.011719 1.25-0.015625 2.0859-0.015625 2.5 0 1.2422 0.03125 2.1328 0.09375 2.6719 0.070313 0.54297 0.17969 0.93359 0.32812 1.1719 0.20703 0.32422 0.47266 0.57422 0.79688 0.75 0.32031 0.16797 0.69141 0.25 1.1094 0.25 1.0195 0 1.8203-0.39062 2.4062-1.1719 0.58203-0.78125 0.875-1.8672 0.875-3.2656v-7.5625h4.8906v15.312h-4.8906v-2.2188c-0.74219 0.89844-1.5234 1.5586-2.3438 1.9844-0.82422 0.41406-1.7344 0.625-2.7344 0.625-1.7617 0-3.1055-0.53906-4.0312-1.625-0.92969-1.082-1.3906-2.6602-1.3906-4.7344z"/>
  </symbol>
  <symbol id="l" overflow="visible">
   <path d="m2.5781-20.406h8.7344c2.5938 0 4.582 0.57812 5.9688 1.7344 1.3945 1.1484 2.0938 2.7891 2.0938 4.9219 0 2.1367-0.69922 3.7812-2.0938 4.9375-1.3867 1.1562-3.375 1.7344-5.9688 1.7344h-3.4844v7.0781h-5.25zm5.25 3.8125v5.7031h2.9219c1.0195 0 1.8047-0.25 2.3594-0.75 0.5625-0.5 0.84375-1.2031 0.84375-2.1094 0-0.91406-0.28125-1.6172-0.84375-2.1094-0.55469-0.48828-1.3398-0.73438-2.3594-0.73438z"/>
  </symbol>
 </defs>
 <g>
  <path d="m518.7 459.2h-7.1016c2.1562-28 9.6953-122.2 4.9688-201.4-4.7656-79.582-28.918-158.32-35.402-178.12-0.027343-3.4844-0.875-6.125-2.6367-9.0156-3.8047-6.2539-10.984-9.0625-20.211-9.0625h-63.168c0.63672-5.6016 1.0547-3.6328 1.0547-5.6562 0-9.2617-7.5391-16.742-16.801-16.742h-29.863c-9.2617 0-16.801 7.4805-16.801 16.855 0 1.9766 0.40234-0.054688 1.0352 5.543h-69.453c-9.2188 0-16.398 2.5586-20.188 8.8047-0.95703 1.5742-1.6562 2.8242-2.1016 4.5859-0.85547 2.5859-29.805 91.66-35.223 182.35-4.7734 79.871 2.9375 173.86 5.0156 201.86h-8.125c-3.0977 0-4.8984 0.5-4.8984 3.5977v54.66c0 12.348 9.3438 20.145 21.699 20.145h281.4c12.355 0 21.703-7.7969 21.703-20.148v-54.66c0-3.0938-1.8047-3.5938-4.9023-3.5938zm-208.98-268.8c-0.84375 0-2.4453-0.40234-2.8398-1.1523l-46.113-88.445h201.11l-46.109 88.445c-0.40234 0.77734-1.9609 1.1523-2.8359 1.1523zm71.973 11.203c-3.9609 0-10.902 2.9844-20.367 2.9844-9.4648 0-16.406-2.9844-20.371-2.9844zm-37.762-145.66c0-3.0859 2.5078-5.543 5.6016-5.543h29.863c3.0898 0 5.6016 2.457 5.6016 5.6562 0 3.0859-2.5078 5.543-5.6016 5.543h-29.863c-3.0938 0-5.6016-2.4609-5.6016-5.6562zm-79.609 16.855h194c5.0195 0 8.8242 0.65625 10.535 3.3164-0.16797 0.92578-0.19141 1.4453 0.14063 2.3984 0.027343 0.085937 0.33984 0.76562 0.87891 2.3789-0.21875 1.8867-0.86328 5.0586-1.9883 7.2305l-0.21094 1.4766h-212.7l-0.20703-1.5898c-2.3477-4.543-2.7344-8.4336-1.0625-11.184 1.6836-2.7812 5.457-4.0273 10.621-4.0273zm-46.336 186.19c3.832-64.121 19.641-130.19 28.539-158.19h1.6367l48.781 93.613c2.3516 4.5039 7.7227 7.1875 12.777 7.1875h16.824c0.95312 11.199 19.125 14.184 34.781 14.184s33.824-2.9844 34.777-14.184h16.828c5.0625 0 10.438-3.8867 12.773-8.3945l49.379-95.652c9.3125 30.984 26.41 96.035 30.301 161.07 4.7539 79.547-3.0117 178.18-5.0156 200.58h-46.93c0.89453 0 1.7656-2.582 2.582-3.4648 5.75-6.2344 8.5273-14.539 7.8164-23.309l-2.3672-29.227h12.957c11.977 0 21.168-10.684 21.168-22.68v-77.992c0.007812-11.992-9.1875-22.527-21.16-22.527h-22.812l-1.4453-17.422c2.4023 1.4102 5.1641 2.4688 8.1406 2.4688 8.9336 0 16.172-7.1406 16.172-16.07 0-8.9258-7.2422-17.5-16.172-17.5-4.6133 0-8.7539 3.7305-11.703 3.7305h-50.625c0.066407 0 0.20703 0.72656 0.20703 0.35938 0-9.2383-13.031-12.809-26.684-13.977-0.40234-4.1875-3.9023-7.1289-8.1992-7.1289s-7.7734 3.4609-8.1758 7.6484c-13.652 1.1719-26.684 4.1328-26.684 13.371 0 0.36328 0.14062-0.27344 0.20703-0.27344h-51.555c-4.6367 0-8.3984 5.1523-8.3984 9.7891 0 4.0156 2.8164 8.0547 6.5742 8.8828-0.54297 0.29297-1.0742 0.95703-1.5 1.4219l-14.844 16.336c-1.0195 1.1016-1.5391 2.6562-1.4727 4.1484 0.078125 1.4961 0.74609 2.9453 1.8633 3.9414 2.3086 2.0664 8.9102 9.4414 8.9102 15.91 0 44.488-12.492 134.77-12.633 135.74-1.125 8.7578 1.2812 18.055 6.793 24.32 0.78516 0.89453 1.6367 3.5039 2.5234 3.5039h-39.855c-1.9062-22.398-9.8867-119.8-5.082-200.21zm46.723 173.34c0.066407-0.52344 0.375-1.1328 0.83203-6.7305h39.613c3.0977 0 5.6016-2.5039 5.6016-5.6016s-2.5039-5.6016-5.6016-5.6016h-38.145c0.58984-5.6016 1.2539-11.199 1.9531-16.801h36.191c3.0977 0 5.6016-2.5039 5.6016-5.6016s-2.5039-5.6016-5.6016-5.6016h-34.875c0.58984-5.6016 1.1797-8.1523 1.7656-13.637 0.26953 0.046876 0.50781 2.4414 0.78906 2.4414h32.324c3.0977 0 5.6016-2.5039 5.6016-5.6016s-2.5039-5.6016-5.6016-5.6016h-31.969c0.51953-5.6016 1.0195-11.199 1.4844-16.801h30.488c3.0977 0 5.6016-2.5039 5.6016-5.6016s-2.5039-5.6016-5.6016-5.6016h-29.562c0.42188-5.6016 0.77734-11.199 1.0703-16.801h28.492c3.0977 0 5.6016-2.5039 5.6016-5.6016s-2.5039-5.6016-5.6016-5.6016h-27.965c0.15234-5.6016 0.24219-8.4609 0.24219-12.203 0-8.3164-4.9727-16.715-8.707-21.117l9.6328-11.469h160.74l13.57 168.26c0.46094 5.6094-1.2812 11.512-4.8906 15.422-3.6055 3.9102-8.7031 6.7227-14.34 6.7227h-150.8c-5.5664 0-10.484-2.5703-13.836-6.3789-3.3555-3.8164-4.8086-9.4219-4.1016-14.891zm96.609-199.21c13.379 0 21.844 1.5977 23.742 3.332 0.015625 0.046875 0.046875-1.2539 0.058594-1.2539h-47.582c0.011719 0 0.039063 1.3008 0.050782 1.2539 1.8906-1.7344 10.359-3.332 23.73-3.332zm91.207 58.078h21.906c5.8008 0 9.9688 5.5117 9.9688 11.328v77.992c0 5.8203-4.168 11.48-9.9688 11.48h-13.871zm59.875 226.25c0 6.1758-4.3203 8.9453-10.5 8.9453h-281.4c-6.1758 0-10.5-2.7695-10.5-8.9453v-47.055h302.4z"/>
  <use x="70" y="644" xlink:href="#x"/>
  <use x="90.042969" y="644" xlink:href="#q"/>
  <use x="118.042969" y="644" xlink:href="#k"/>
  <use x="137.171875" y="644" xlink:href="#d"/>
  <use x="150.980469" y="644" xlink:href="#c"/>
  <use x="169.875" y="644" xlink:href="#b"/>
  <use x="189.804687" y="644" xlink:href="#g"/>
  <use x="206.40625" y="644" xlink:href="#f"/>
  <use x="216.003906" y="644" xlink:href="#j"/>
  <use x="232.667969" y="644" xlink:href="#g"/>
  <use x="249.265625" y="644" xlink:href="#a"/>
  <use x="278.25" y="644" xlink:href="#w"/>
  <use x="288.667969" y="644" xlink:href="#c"/>
  <use x="307.5625" y="644" xlink:href="#v"/>
  <use x="325.8125" y="644" xlink:href="#f"/>
  <use x="335.414062" y="644" xlink:href="#e"/>
  <use x="354.402344" y="644" xlink:href="#d"/>
  <use x="377.960938" y="644" xlink:href="#u"/>
  <use x="401.203125" y="644" xlink:href="#f"/>
  <use x="410.796875" y="644" xlink:href="#c"/>
  <use x="429.695312" y="644" xlink:href="#t"/>
  <use x="455.738281" y="644" xlink:href="#s"/>
  <use x="483.601562" y="644" xlink:href="#a"/>
  <use x="502.835937" y="644" xlink:href="#b"/>
  <use x="522.773437" y="644" xlink:href="#h"/>
  <use x="536.15625" y="644" xlink:href="#e"/>
  <use x="555.148437" y="644" xlink:href="#i"/>
  <use x="564.742187" y="644" xlink:href="#c"/>
  <use x="583.640625" y="644" xlink:href="#b"/>
  <use x="603.570312" y="644" xlink:href="#a"/>
  <use x="70" y="672" xlink:href="#r"/>
  <use x="82.183594" y="672" xlink:href="#d"/>
  <use x="95.992188" y="672" xlink:href="#a"/>
  <use x="115.226562" y="672" xlink:href="#p"/>
  <use x="154.152344" y="672" xlink:href="#h"/>
  <use x="167.535156" y="672" xlink:href="#o"/>
  <use x="187.46875" y="672" xlink:href="#e"/>
  <use x="216.207031" y="672" xlink:href="#n"/>
  <use x="239.640625" y="672" xlink:href="#a"/>
  <use x="258.878906" y="672" xlink:href="#m"/>
  <use x="278.8125" y="672" xlink:href="#b"/>
  <use x="308.492188" y="672" xlink:href="#l"/>
  <use x="329.015625" y="672" xlink:href="#d"/>
  <use x="342.820312" y="672" xlink:href="#a"/>
  <use x="362.058594" y="672" xlink:href="#i"/>
  <use x="371.65625" y="672" xlink:href="#e"/>
  <use x="390.648438" y="672" xlink:href="#g"/>
  <use x="407.242188" y="672" xlink:href="#h"/>
 </g>
</svg>
