<?xml version="1.0" encoding="UTF-8"?>
<svg width="700pt" height="700pt" version="1.1" viewBox="0 0 700 700" xmlns="http://www.w3.org/2000/svg" xmlns:xlink="http://www.w3.org/1999/xlink">
 <defs>
  <symbol id="t" overflow="visible">
   <path d="m3.6562-0.21875c-0.1875 0.09375-0.38672 0.16797-0.59375 0.21875-0.19922 0.050781-0.40625 0.078125-0.625 0.078125-0.66797 0-1.1992-0.17969-1.5938-0.54688-0.38672-0.375-0.57812-0.87891-0.57812-1.5156 0-0.64453 0.19141-1.1484 0.57812-1.5156 0.39453-0.375 0.92578-0.5625 1.5938-0.5625 0.21875 0 0.42578 0.027344 0.625 0.078125 0.20703 0.054687 0.40625 0.125 0.59375 0.21875v0.82812c-0.1875-0.125-0.375-0.21875-0.5625-0.28125-0.17969-0.0625-0.37109-0.09375-0.57812-0.09375-0.36719 0-0.65625 0.12109-0.875 0.35938-0.21094 0.23047-0.3125 0.55469-0.3125 0.96875 0 0.40625 0.10156 0.73047 0.3125 0.96875 0.21875 0.23047 0.50781 0.34375 0.875 0.34375 0.20703 0 0.39844-0.023437 0.57812-0.078125 0.1875-0.0625 0.375-0.16016 0.5625-0.29688z"/>
  </symbol>
  <symbol id="c" overflow="visible">
   <path d="m2.6875-2.1719c-0.085938-0.039063-0.16797-0.070313-0.25-0.09375-0.085938-0.019531-0.16797-0.03125-0.25-0.03125-0.25 0-0.44531 0.085937-0.57812 0.25-0.125 0.15625-0.1875 0.38281-0.1875 0.67188v1.375h-0.96875v-2.9844h0.96875v0.48438c0.11328-0.19531 0.25-0.33594 0.40625-0.42188 0.16406-0.09375 0.35938-0.14062 0.57812-0.14062h0.10938c0.039063 0 0.09375 0.007812 0.15625 0.015625z"/>
  </symbol>
  <symbol id="b" overflow="visible">
   <path d="m3.4375-1.5v0.26562h-2.2344c0.03125 0.23047 0.11328 0.40234 0.25 0.51562 0.13281 0.10547 0.32812 0.15625 0.57812 0.15625 0.20703 0 0.41406-0.023438 0.625-0.078125 0.20703-0.0625 0.42188-0.15625 0.64062-0.28125v0.73438c-0.21875 0.09375-0.44531 0.16406-0.67188 0.20312-0.23047 0.039062-0.45312 0.0625-0.67188 0.0625-0.54297 0-0.96484-0.13281-1.2656-0.40625-0.30469-0.28125-0.45312-0.67188-0.45312-1.1719 0-0.47656 0.14453-0.85938 0.4375-1.1406 0.30078-0.28125 0.70703-0.42188 1.2188-0.42188 0.46875 0 0.84375 0.14062 1.125 0.42188s0.42188 0.66406 0.42188 1.1406zm-0.96875-0.32812c0-0.17578-0.058594-0.31641-0.17188-0.42188-0.10547-0.11328-0.24219-0.17188-0.40625-0.17188-0.1875 0-0.33984 0.054687-0.45312 0.15625-0.11719 0.10547-0.1875 0.25-0.21875 0.4375z"/>
  </symbol>
  <symbol id="d" overflow="visible">
   <path d="m1.7969-1.3438c-0.19922 0-0.35156 0.039062-0.45312 0.10938-0.09375 0.0625-0.14062 0.16406-0.14062 0.29688 0 0.11719 0.035156 0.21094 0.10938 0.28125 0.082031 0.0625 0.19531 0.09375 0.34375 0.09375 0.17578 0 0.32812-0.0625 0.45312-0.1875s0.1875-0.28516 0.1875-0.48438v-0.10938zm1.4688-0.35938v1.7031h-0.96875v-0.4375c-0.125 0.17969-0.27344 0.30859-0.4375 0.39062-0.15625 0.082031-0.35156 0.125-0.57812 0.125-0.3125 0-0.57031-0.085938-0.76562-0.26562-0.1875-0.1875-0.28125-0.42188-0.28125-0.70312 0-0.35156 0.11719-0.61328 0.35938-0.78125 0.23828-0.16406 0.61719-0.25 1.1406-0.25h0.5625v-0.0625c0-0.15625-0.0625-0.26562-0.1875-0.32812-0.11719-0.070312-0.29688-0.10938-0.54688-0.10938-0.21094 0-0.40234 0.023437-0.57812 0.0625-0.17969 0.042969-0.33984 0.10156-0.48438 0.17188v-0.71875c0.19531-0.050781 0.39844-0.085938 0.60938-0.10938 0.20703-0.03125 0.41406-0.046875 0.625-0.046875 0.53906 0 0.92969 0.10938 1.1719 0.32812 0.23828 0.21094 0.35938 0.55469 0.35938 1.0312z"/>
  </symbol>
  <symbol id="a" overflow="visible">
   <path d="m1.5-3.8438v0.85938h0.98438v0.67188h-0.98438v1.2812c0 0.13672 0.023438 0.23047 0.078125 0.28125 0.0625 0.042969 0.17578 0.0625 0.34375 0.0625h0.48438v0.6875h-0.8125c-0.38672 0-0.65625-0.078125-0.8125-0.23438s-0.23438-0.42188-0.23438-0.79688v-1.2812h-0.46875v-0.67188h0.46875v-0.85938z"/>
  </symbol>
  <symbol id="i" overflow="visible">
   <path d="m2.5-2.5469v-1.6094h0.95312v4.1562h-0.95312v-0.4375c-0.13672 0.17969-0.28125 0.30859-0.4375 0.39062-0.15625 0.082031-0.33984 0.125-0.54688 0.125-0.375 0-0.68359-0.14453-0.92188-0.4375-0.23047-0.28906-0.34375-0.67188-0.34375-1.1406 0-0.45703 0.11328-0.83203 0.34375-1.125 0.23828-0.28906 0.54688-0.4375 0.92188-0.4375 0.19531 0 0.375 0.042969 0.53125 0.125 0.16406 0.085938 0.31641 0.21484 0.45312 0.39062zm-0.64062 1.9375c0.20703 0 0.36328-0.070313 0.46875-0.21875 0.11328-0.15625 0.17188-0.37891 0.17188-0.67188 0-0.28125-0.058594-0.49219-0.17188-0.64062-0.10547-0.15625-0.26172-0.23438-0.46875-0.23438-0.19922 0-0.35547 0.078125-0.46875 0.23438-0.10547 0.14844-0.15625 0.35938-0.15625 0.64062 0 0.29297 0.050781 0.51562 0.15625 0.67188 0.11328 0.14844 0.26953 0.21875 0.46875 0.21875z"/>
  </symbol>
  <symbol id="h" overflow="visible">
   <path d="m2.0469-0.60938c0.20703 0 0.36328-0.070313 0.46875-0.21875 0.11328-0.15625 0.17188-0.37891 0.17188-0.67188 0-0.28125-0.058594-0.49219-0.17188-0.64062-0.10547-0.15625-0.26172-0.23438-0.46875-0.23438-0.19922 0-0.35547 0.078125-0.46875 0.23438-0.10547 0.14844-0.15625 0.35938-0.15625 0.64062 0 0.29297 0.050781 0.51562 0.15625 0.67188 0.11328 0.14844 0.26953 0.21875 0.46875 0.21875zm-0.625-1.9375c0.125-0.17578 0.26562-0.30469 0.42188-0.39062 0.16406-0.082031 0.35156-0.125 0.5625-0.125 0.36328 0 0.66406 0.14844 0.90625 0.4375 0.23828 0.29297 0.35938 0.66797 0.35938 1.125 0 0.46875-0.12109 0.85156-0.35938 1.1406-0.24219 0.29297-0.54297 0.4375-0.90625 0.4375-0.21094 0-0.39844-0.042969-0.5625-0.125-0.15625-0.082031-0.29688-0.21094-0.42188-0.39062v0.4375h-0.96875v-4.1562h0.96875z"/>
  </symbol>
  <symbol id="g" overflow="visible">
   <path d="m0.0625-2.9844h0.95312l0.8125 2.0156 0.6875-2.0156h0.95312l-1.2656 3.2656c-0.125 0.33203-0.27344 0.56641-0.4375 0.70312-0.16797 0.13281-0.39062 0.20312-0.67188 0.20312h-0.54688v-0.64062h0.29688c0.16406 0 0.28516-0.027344 0.35938-0.078125 0.070313-0.054688 0.12891-0.14062 0.17188-0.26562l0.03125-0.09375z"/>
  </symbol>
  <symbol id="f" overflow="visible">
   <path d="m0.5-3.9844h2.7812v0.78125h-1.75v0.73438h1.6406v0.78125h-1.6406v1.6875h-1.0312z"/>
  </symbol>
  <symbol id="s" overflow="visible">
   <path d="m0.45312-4.1562h0.96875v4.1562h-0.96875z"/>
  </symbol>
  <symbol id="r" overflow="visible">
   <path d="m2.4219-4.1562v0.625h-0.51562c-0.13672 0-0.23438 0.027344-0.29688 0.078125-0.054687 0.054687-0.078125 0.13672-0.078125 0.25v0.21875h0.82812v0.67188h-0.82812v2.3125h-0.95312v-2.3125h-0.46875v-0.67188h0.46875v-0.21875c0-0.32031 0.085937-0.5625 0.26562-0.71875 0.1875-0.15625 0.47266-0.23438 0.85938-0.23438z"/>
  </symbol>
  <symbol id="e" overflow="visible">
   <path d="m1.875-2.375c-0.21094 0-0.37109 0.078125-0.48438 0.23438-0.10547 0.14844-0.15625 0.35938-0.15625 0.64062 0 0.29297 0.050781 0.51562 0.15625 0.67188 0.11328 0.14844 0.27344 0.21875 0.48438 0.21875 0.20703 0 0.36719-0.070313 0.48438-0.21875 0.11328-0.15625 0.17188-0.37891 0.17188-0.67188 0-0.28125-0.058594-0.49219-0.17188-0.64062-0.11719-0.15625-0.27734-0.23438-0.48438-0.23438zm0-0.6875c0.51953 0 0.92188 0.14062 1.2031 0.42188 0.28906 0.27344 0.4375 0.65234 0.4375 1.1406 0 0.5-0.14844 0.89062-0.4375 1.1719-0.28125 0.27344-0.68359 0.40625-1.2031 0.40625-0.51172 0-0.91406-0.13281-1.2031-0.40625-0.29297-0.28125-0.4375-0.67188-0.4375-1.1719 0-0.48828 0.14453-0.86719 0.4375-1.1406 0.28906-0.28125 0.69141-0.42188 1.2031-0.42188z"/>
  </symbol>
  <symbol id="q" overflow="visible">
   <path d="m3.2344-2.5c0.11328-0.17578 0.25391-0.3125 0.42188-0.40625 0.16406-0.10156 0.35156-0.15625 0.5625-0.15625 0.33203 0 0.58594 0.10938 0.76562 0.32812 0.1875 0.21094 0.28125 0.51172 0.28125 0.90625v1.8281h-0.96875v-1.5625c0.007813-0.019531 0.015625-0.039062 0.015625-0.0625v-0.10938c0-0.21875-0.03125-0.375-0.09375-0.46875s-0.16406-0.14062-0.29688-0.14062c-0.1875 0-0.33594 0.078125-0.4375 0.23438-0.09375 0.14844-0.14062 0.35938-0.14062 0.64062v1.4688h-0.96875v-1.5625c0-0.33203-0.03125-0.54688-0.09375-0.64062-0.054688-0.09375-0.15234-0.14062-0.29688-0.14062-0.17969 0-0.32031 0.078125-0.42188 0.23438-0.09375 0.14844-0.14062 0.35938-0.14062 0.64062v1.4688h-0.96875v-2.9844h0.96875v0.4375c0.11328-0.17578 0.24219-0.30469 0.39062-0.39062 0.15625-0.082031 0.32812-0.125 0.51562-0.125 0.20703 0 0.39062 0.054688 0.54688 0.15625 0.15625 0.09375 0.27344 0.23047 0.35938 0.40625z"/>
  </symbol>
  <symbol id="p" overflow="visible">
   <path d="m3.4688-1.8281v1.8281h-0.96875v-1.3906c0-0.25781-0.007812-0.4375-0.015625-0.53125-0.011719-0.10156-0.03125-0.17578-0.0625-0.21875-0.03125-0.0625-0.085937-0.10938-0.15625-0.14062-0.0625-0.039062-0.13281-0.0625-0.20312-0.0625-0.21094 0-0.37109 0.078125-0.48438 0.23438-0.10547 0.15625-0.15625 0.37109-0.15625 0.64062v1.4688h-0.96875v-4.1562h0.96875v1.6094c0.13281-0.17578 0.28516-0.30469 0.45312-0.39062 0.16406-0.082031 0.34375-0.125 0.53125-0.125 0.34375 0 0.60156 0.10938 0.78125 0.32812 0.1875 0.21094 0.28125 0.51172 0.28125 0.90625z"/>
  </symbol>
  <symbol id="o" overflow="visible">
   <path d="m0.5-3.9844h1.1562l1.4375 2.7344v-2.7344h0.98438v3.9844h-1.1562l-1.4375-2.7344v2.7344h-0.98438z"/>
  </symbol>
  <symbol id="n" overflow="visible">
   <path d="m0.42188-1.1719v-1.8125h0.96875v0.29688 0.60938 0.48438c0 0.24219 0.003906 0.41797 0.015625 0.53125 0.007812 0.10547 0.03125 0.17969 0.0625 0.21875 0.039062 0.0625 0.09375 0.11719 0.15625 0.15625 0.0625 0.03125 0.13281 0.046875 0.21875 0.046875 0.19531 0 0.35156-0.078125 0.46875-0.23438 0.11328-0.15625 0.17188-0.36719 0.17188-0.64062v-1.4688h0.95312v2.9844h-0.95312v-0.4375c-0.14844 0.17969-0.30469 0.30859-0.46875 0.39062-0.15625 0.082031-0.33594 0.125-0.53125 0.125-0.34375 0-0.60938-0.10156-0.79688-0.3125-0.17969-0.21875-0.26562-0.53125-0.26562-0.9375z"/>
  </symbol>
  <symbol id="m" overflow="visible">
   <path d="m3.4688-1.8281v1.8281h-0.96875v-1.3906c0-0.25781-0.007812-0.4375-0.015625-0.53125-0.011719-0.10156-0.03125-0.17578-0.0625-0.21875-0.03125-0.0625-0.085937-0.10938-0.15625-0.14062-0.0625-0.039062-0.13281-0.0625-0.20312-0.0625-0.21094 0-0.37109 0.078125-0.48438 0.23438-0.10547 0.15625-0.15625 0.37109-0.15625 0.64062v1.4688h-0.96875v-2.9844h0.96875v0.4375c0.13281-0.17578 0.28516-0.30469 0.45312-0.39062 0.16406-0.082031 0.34375-0.125 0.53125-0.125 0.34375 0 0.60156 0.10938 0.78125 0.32812 0.1875 0.21094 0.28125 0.51172 0.28125 0.90625z"/>
  </symbol>
  <symbol id="l" overflow="visible">
   <path d="m0.5-3.9844h1.7031c0.50781 0 0.89844 0.11719 1.1719 0.34375 0.26953 0.21875 0.40625 0.53906 0.40625 0.95312 0 0.41797-0.13672 0.74219-0.40625 0.96875-0.27344 0.21875-0.66406 0.32812-1.1719 0.32812h-0.67188v1.3906h-1.0312zm1.0312 0.75v1.1094h0.5625c0.19531 0 0.34766-0.046875 0.45312-0.14062 0.11328-0.10156 0.17188-0.24219 0.17188-0.42188 0-0.17578-0.058594-0.3125-0.17188-0.40625-0.10547-0.09375-0.25781-0.14062-0.45312-0.14062z"/>
  </symbol>
  <symbol id="k" overflow="visible">
   <path d="m0.45312-2.9844h0.96875v2.9375c0 0.39453-0.10156 0.69531-0.29688 0.90625-0.1875 0.21875-0.46484 0.32812-0.82812 0.32812h-0.48438v-0.64062h0.17188c0.17578 0 0.29688-0.042969 0.35938-0.125 0.070312-0.074219 0.10938-0.23047 0.10938-0.46875zm0-1.1719h0.96875v0.78125h-0.96875z"/>
  </symbol>
  <symbol id="j" overflow="visible">
   <path d="m2.875-2.8906v0.76562c-0.125-0.082031-0.25781-0.14453-0.39062-0.1875-0.13672-0.039062-0.27344-0.0625-0.40625-0.0625-0.27344 0-0.48047 0.078125-0.625 0.23438-0.14844 0.15625-0.21875 0.37109-0.21875 0.64062 0 0.28125 0.070313 0.5 0.21875 0.65625 0.14453 0.15625 0.35156 0.23438 0.625 0.23438 0.14453 0 0.28516-0.019531 0.42188-0.0625 0.13281-0.039063 0.25781-0.10938 0.375-0.20312v0.78125c-0.14844 0.0625-0.29688 0.10156-0.45312 0.125-0.15625 0.03125-0.3125 0.046875-0.46875 0.046875-0.54297 0-0.96484-0.13281-1.2656-0.40625-0.30469-0.28125-0.45312-0.67188-0.45312-1.1719 0-0.48828 0.14844-0.86719 0.45312-1.1406 0.30078-0.28125 0.72266-0.42188 1.2656-0.42188 0.15625 0 0.3125 0.015625 0.46875 0.046875 0.15625 0.023437 0.30469 0.0625 0.45312 0.125z"/>
  </symbol>
 </defs>
 <g>
  <path d="m417.98 518.36c-0.55859 0-1.1172-0.085938-1.6562-0.25781l-110.03-34.945c-2.5703-0.81641-4.1602-3.3867-3.75-6.0508 0.41406-2.6641 2.707-4.6328 5.4023-4.6328h121.13c1.7461 0 3.3828 0.83203 4.4141 2.2383 1.0273 1.4062 1.3281 3.2227 0.79688 4.8828l-11.098 34.945c-0.4375 1.3828-1.4102 2.5312-2.6953 3.1992-0.78516 0.41406-1.6484 0.62109-2.5156 0.62109zm-74.75-34.945 71.191 22.609 7.1797-22.609z"/>
  <path d="m497.66 300.61c-0.27734 0-0.55859-0.019531-0.84375-0.066406-2.6641-0.41406-4.6328-2.707-4.6328-5.4023l0.003906-194.03c0-1.7461 0.83203-3.3828 2.2383-4.4141s3.2188-1.3281 4.8828-0.79688l55.977 17.777c2.8789 0.91406 4.4727 3.9883 3.5586 6.8672l-55.977 176.25c-0.72656 2.2969-2.8594 3.8125-5.207 3.8125zm5.4648-192.02v151.27l43.637-137.41z"/>
  <path d="m372.36 67.785h-121.13c-1.7461 0-3.3828-0.83203-4.4141-2.2383s-1.3281-3.2227-0.79687-4.8828l11.098-34.945c0.4375-1.3828 1.4102-2.5312 2.6953-3.1992 1.2891-0.66797 2.7852-0.79688 4.1719-0.35547l110.04 34.945c2.5703 0.81641 4.1602 3.3867 3.75 6.0508-0.41797 2.6602-2.7109 4.625-5.4102 4.625zm-113.66-10.938h78.371l-71.191-22.609z"/>
  <path d="m180.47 448.88c-0.55469 0-1.1133-0.085937-1.6562-0.25781l-55.977-17.777c-2.8789-0.91406-4.4688-3.9883-3.5586-6.8672l55.977-176.25c0.81641-2.5703 3.3828-4.1641 6.0508-3.75 2.6641 0.41406 4.6328 2.707 4.6328 5.4023v194.03c0 1.7461-0.83203 3.3828-2.2383 4.4141-0.94922 0.69531-2.0859 1.0586-3.2305 1.0586zm-49.109-26.805 43.641 13.859v-151.27z"/>
  <path d="m497.66 483.41h-317.19c-3.0195 0-5.4688-2.4492-5.4688-5.4688v-415.62c0-3.0195 2.4492-5.4688 5.4688-5.4688h317.19c3.0195 0 5.4688 2.4492 5.4688 5.4688v415.62c0 3.0195-2.4492 5.4688-5.4688 5.4688zm-311.72-10.938h306.25v-404.69h-306.25z"/>
  <path d="m333.59 417.79c-27.141 0-49.219-22.078-49.219-49.219v-43.75c0-3.0195 2.4492-5.4688 5.4688-5.4688h87.5c3.0195 0 5.4688 2.4492 5.4688 5.4688v43.75c0 27.141-22.078 49.219-49.219 49.219zm-38.281-87.5v38.281c0 21.109 17.172 38.281 38.281 38.281s38.281-17.172 38.281-38.281v-38.281z"/>
  <path d="m388.28 374.04h-10.938c-3.0195 0-5.4688-2.4492-5.4688-5.4688v-43.75c0-3.0195 2.4492-5.4688 5.4688-5.4688h10.938c15.078 0 27.344 12.266 27.344 27.344s-12.266 27.344-27.344 27.344zm-5.4688-10.938h5.4688c9.0469 0 16.406-7.3594 16.406-16.406s-7.3594-16.406-16.406-16.406h-5.4688z"/>
  <path d="m366.41 297.47h-60.156c-12.062 0-21.875-9.8125-21.875-21.875s9.8125-21.875 21.875-21.875h18.594c7.8398 0 14.219-6.3789 14.219-14.219v-2.1875c0-3.0195 2.4492-5.4688 5.4688-5.4688s5.4688 2.4492 5.4688 5.4688v2.1875c0 13.871-11.285 25.156-25.156 25.156h-18.594c-6.0312 0-10.938 4.9062-10.938 10.938s4.9062 10.938 10.938 10.938h60.156c3.0195 0 5.4688 2.4492 5.4688 5.4688 0 3.0195-2.4492 5.4688-5.4688 5.4688z"/>
  <path d="m444.09 166.22h-0.023438-207.81c-2.3008 0-4.3594-1.4414-5.1406-3.6055-0.78516-2.1641-0.12891-4.5898 1.6406-6.0625l27.77-23.145-27.77-23.145c-1.7695-1.4727-2.4258-3.8984-1.6406-6.0625 0.78125-2.1641 2.8398-3.6055 5.1406-3.6055h207.81c2.3008 0 4.3594 1.4414 5.1406 3.6055 0.78516 2.1641 0.12891 4.5898-1.6406 6.0625l-27.77 23.145 27.477 22.898c1.3828 0.99219 2.2812 2.6133 2.2812 4.4453 0.003907 3.0195-2.4453 5.4688-5.4648 5.4688zm-192.73-10.938h177.6l-21.207-17.676c-1.2461-1.0391-1.9688-2.5781-1.9688-4.1992 0-1.625 0.72266-3.1602 1.9688-4.1992l21.207-17.676h-177.6l21.207 17.676c1.2461 1.0391 1.9688 2.5781 1.9688 4.1992 0 1.625-0.72266 3.1602-1.9688 4.1992z"/>
  <path d="m114.84 292c-6.0391 0-10.938-4.8984-10.938-10.938 0-6.0391 4.8984-10.938 10.938-10.938s10.938 4.8984 10.938 10.938c0 6.0391-4.8984 10.938-10.938 10.938z"/>
  <path d="m585.16 237.32c-6.0391 0-10.938-4.8984-10.938-10.938 0-6.0391 4.8984-10.938 10.938-10.938s10.938 4.8984 10.938 10.938c0 6.0391-4.8984 10.938-10.938 10.938z"/>
  <path d="m289.84 226.38c-6.0391 0-10.938-4.8984-10.938-10.938 0-6.0391 4.8984-10.938 10.938-10.938s10.938 4.8984 10.938 10.938c0 6.0391-4.8984 10.938-10.938 10.938z"/>
  <path d="m541.41 324.82c-6.0391 0-10.938-4.8984-10.938-10.938 0-6.0391 4.8984-10.938 10.938-10.938s10.938 4.8984 10.938 10.938c0 6.0391-4.8984 10.938-10.938 10.938z"/>
  <path d="m541.41 510.75c-6.0391 0-10.938-4.8984-10.938-10.938 0-6.0391 4.8984-10.938 10.938-10.938s10.938 4.8984 10.938 10.938c0 6.0391-4.8984 10.938-10.938 10.938z"/>
  <path d="m224.22 532.63c-6.0391 0-10.938-4.8984-10.938-10.938 0-6.0391 4.8984-10.938 10.938-10.938s10.938 4.8984 10.938 10.938c0 6.0391-4.8984 10.938-10.938 10.938z"/>
  <path d="m552.34 84.191c-6.0391 0-10.938-4.8984-10.938-10.938 0-6.0391 4.8984-10.938 10.938-10.938s10.938 4.8984 10.938 10.938c0 6.0391-4.8984 10.938-10.938 10.938z"/>
  <path d="m125.78 73.254c-6.0391 0-10.938-4.8984-10.938-10.938 0-6.0391 4.8984-10.938 10.938-10.938s10.938 4.8984 10.938 10.938c0 6.0391-4.8984 10.938-10.938 10.938z"/>
  <path d="m432.03 417.79h-185.94c-3.0195 0-5.4688-2.4492-5.4688-5.4688 0-3.0195 2.4492-5.4688 5.4688-5.4688h185.94c3.0195 0 5.4688 2.4492 5.4688 5.4688 0 3.0195-2.4492 5.4688-5.4688 5.4688z"/>
  <path d="m257.03 220.91h-76.562c-3.0195 0-5.4688-2.4492-5.4688-5.4688 0-3.0195 2.4492-5.4688 5.4688-5.4688h76.562c3.0195 0 5.4688 2.4492 5.4688 5.4688 0 3.0195-2.4492 5.4688-5.4688 5.4688z"/>
  <path d="m497.66 220.91h-98.438c-3.0195 0-5.4688-2.4492-5.4688-5.4688 0-3.0195 2.4492-5.4688 5.4688-5.4688h98.438c3.0195 0 5.4688 2.4492 5.4688 5.4688 0 3.0195-2.4492 5.4688-5.4688 5.4688z"/>
  <path d="m125.78 177.16c-15.078 0-27.344-12.266-27.344-27.344s12.266-27.344 27.344-27.344 27.344 12.266 27.344 27.344-12.266 27.344-27.344 27.344zm0-43.75c-9.0469 0-16.406 7.3594-16.406 16.406s7.3594 16.406 16.406 16.406 16.406-7.3594 16.406-16.406-7.3594-16.406-16.406-16.406z"/>
  <path d="m568.75 439.66c-18.094 0-32.812-14.719-32.812-32.812s14.719-32.812 32.812-32.812 32.812 14.719 32.812 32.812-14.719 32.812-32.812 32.812zm0-54.688c-12.062 0-21.875 9.8125-21.875 21.875s9.8125 21.875 21.875 21.875 21.875-9.8125 21.875-21.875-9.8125-21.875-21.875-21.875z"/>
  <use x="70" y="576.40625" xlink:href="#t"/>
  <use x="74.011719" y="576.40625" xlink:href="#c"/>
  <use x="76.710938" y="576.40625" xlink:href="#b"/>
  <use x="80.417969" y="576.40625" xlink:href="#d"/>
  <use x="84.109375" y="576.40625" xlink:href="#a"/>
  <use x="86.722656" y="576.40625" xlink:href="#b"/>
  <use x="90.433594" y="576.40625" xlink:href="#i"/>
  <use x="96.25" y="576.40625" xlink:href="#h"/>
  <use x="100.167969" y="576.40625" xlink:href="#g"/>
  <use x="105.636719" y="576.40625" xlink:href="#f"/>
  <use x="109.371094" y="576.40625" xlink:href="#s"/>
  <use x="111.246094" y="576.40625" xlink:href="#d"/>
  <use x="114.9375" y="576.40625" xlink:href="#a"/>
  <use x="117.550781" y="576.40625" xlink:href="#d"/>
  <use x="121.238281" y="576.40625" xlink:href="#c"/>
  <use x="123.9375" y="576.40625" xlink:href="#a"/>
  <use x="70" y="581.875" xlink:href="#r"/>
  <use x="72.378906" y="581.875" xlink:href="#c"/>
  <use x="75.078125" y="581.875" xlink:href="#e"/>
  <use x="78.832031" y="581.875" xlink:href="#q"/>
  <use x="86.4375" y="581.875" xlink:href="#a"/>
  <use x="89.050781" y="581.875" xlink:href="#p"/>
  <use x="92.941406" y="581.875" xlink:href="#b"/>
  <use x="98.554688" y="581.875" xlink:href="#o"/>
  <use x="103.132812" y="581.875" xlink:href="#e"/>
  <use x="106.890625" y="581.875" xlink:href="#n"/>
  <use x="110.785156" y="581.875" xlink:href="#m"/>
  <use x="116.582031" y="581.875" xlink:href="#l"/>
  <use x="120.589844" y="581.875" xlink:href="#c"/>
  <use x="123.285156" y="581.875" xlink:href="#e"/>
  <use x="127.042969" y="581.875" xlink:href="#k"/>
  <use x="128.917969" y="581.875" xlink:href="#b"/>
  <use x="132.625" y="581.875" xlink:href="#j"/>
  <use x="135.867188" y="581.875" xlink:href="#a"/>
 </g>
</svg>
